<svg aria-hidden="true" style="position: absolute; width: 0; height: 0; overflow: hidden;" version="1.1" xmlns="http://www.w3.org/2000/svg" xmlns:xlink="http://www.w3.org/1999/xlink">
<defs>
<symbol id="icon-chat" viewBox="0 0 20 20">
<title>chat</title>
<path d="M5.8 12.2v-6.2h-3.8c-1.1 0-2 0.9-2 2v6c0 1.1 0.9 2 2 2h1v3l3-3h5c1.1 0 2-0.9 2-2v-1.82c-0.064 0.014-0.132 0.021-0.2 0.021l-7-0.001zM18 1h-9c-1.1 0-2 0.9-2 2v8h7l3 3v-3h1c1.1 0 2-0.899 2-2v-6c0-1.1-0.9-2-2-2z"></path>
</symbol>
<symbol id="icon-cog" viewBox="0 0 20 20">
<title>cog</title>
<path d="M16.783 10c0-1.049 0.646-1.875 1.617-2.443-0.176-0.584-0.407-1.145-0.692-1.672-1.089 0.285-1.97-0.141-2.711-0.883-0.741-0.74-0.968-1.621-0.683-2.711-0.527-0.285-1.088-0.518-1.672-0.691-0.568 0.97-1.595 1.615-2.642 1.615-1.048 0-2.074-0.645-2.643-1.615-0.585 0.173-1.144 0.406-1.671 0.691 0.285 1.090 0.059 1.971-0.684 2.711-0.74 0.742-1.621 1.168-2.711 0.883-0.285 0.527-0.517 1.088-0.691 1.672 0.97 0.568 1.615 1.394 1.615 2.443 0 1.047-0.645 2.074-1.615 2.643 0.175 0.584 0.406 1.144 0.691 1.672 1.090-0.285 1.971-0.059 2.711 0.682s0.969 1.623 0.684 2.711c0.527 0.285 1.087 0.518 1.672 0.693 0.568-0.973 1.595-1.617 2.643-1.617 1.047 0 2.074 0.645 2.643 1.617 0.584-0.176 1.144-0.408 1.672-0.693-0.285-1.088-0.059-1.969 0.683-2.711 0.741-0.74 1.622-1.166 2.711-0.883 0.285-0.527 0.517-1.086 0.692-1.672-0.973-0.569-1.619-1.395-1.619-2.442zM10 13.652c-2.018 0-3.653-1.635-3.653-3.652 0-2.018 1.636-3.654 3.653-3.654s3.652 1.637 3.652 3.654c0 2.018-1.634 3.652-3.652 3.652z"></path>
</symbol>
<symbol id="icon-emoji-happy" viewBox="0 0 20 20">
<title>emoji-happy</title>
<path d="M10 0.4c-5.302 0-9.6 4.298-9.6 9.6s4.298 9.6 9.6 9.6c5.301 0 9.6-4.298 9.6-9.601 0-5.301-4.299-9.599-9.6-9.599zM10 17.599c-4.197 0-7.6-3.402-7.6-7.6s3.402-7.599 7.6-7.599c4.197 0 7.601 3.402 7.601 7.6s-3.404 7.599-7.601 7.599zM7.501 9.75c0.828 0 1.499-0.783 1.499-1.75s-0.672-1.75-1.5-1.75-1.5 0.783-1.5 1.75 0.672 1.75 1.501 1.75zM12.5 9.75c0.829 0 1.5-0.783 1.5-1.75s-0.672-1.75-1.5-1.75-1.5 0.784-1.5 1.75 0.672 1.75 1.5 1.75zM14.341 11.336c-0.363-0.186-0.815-0.043-1.008 0.32-0.034 0.066-0.869 1.593-3.332 1.593-2.451 0-3.291-1.513-3.333-1.592-0.188-0.365-0.632-0.514-1.004-0.329-0.37 0.186-0.52 0.636-0.335 1.007 0.050 0.099 1.248 2.414 4.672 2.414 3.425 0 4.621-2.316 4.67-2.415 0.184-0.367 0.036-0.81-0.33-0.998z"></path>
</symbol>
<symbol id="icon-heart" viewBox="0 0 20 20">
<title>heart</title>
<path d="M17.19 4.155c-1.672-1.534-4.383-1.534-6.055 0l-1.135 1.042-1.136-1.042c-1.672-1.534-4.382-1.534-6.054 0-1.881 1.727-1.881 4.52 0 6.246l7.19 6.599 7.19-6.599c1.88-1.726 1.88-4.52 0-6.246z"></path>
</symbol>
<symbol id="icon-location-pin" viewBox="0 0 20 20">
<title>location-pin</title>
<path d="M10 2.009c-2.762 0-5 2.229-5 4.99 0 4.774 5 11 5 11s5-6.227 5-11c0-2.76-2.238-4.99-5-4.99zM10 9.76c-1.492 0-2.7-1.209-2.7-2.7s1.208-2.7 2.7-2.7c1.49 0 2.699 1.209 2.699 2.7s-1.209 2.7-2.699 2.7z"></path>
</symbol>
<symbol id="icon-magnifying-glass" viewBox="0 0 20 20">
<title>magnifying-glass</title>
<path d="M17.545 15.467l-3.779-3.779c0.57-0.935 0.898-2.035 0.898-3.21 0-3.417-2.961-6.377-6.378-6.377s-6.186 2.769-6.186 6.186c0 3.416 2.961 6.377 6.377 6.377 1.137 0 2.2-0.309 3.115-0.844l3.799 3.801c0.372 0.371 0.975 0.371 1.346 0l0.943-0.943c0.371-0.371 0.236-0.84-0.135-1.211zM4.004 8.287c0-2.366 1.917-4.283 4.282-4.283s4.474 2.107 4.474 4.474c0 2.365-1.918 4.283-4.283 4.283s-4.473-2.109-4.473-4.474z"></path>
</symbol>
<symbol id="icon-map" viewBox="0 0 20 20">
<title>map</title>
<path d="M19.447 3.718l-6-3c-0.281-0.141-0.613-0.141-0.895 0l-5.63 2.815-5.606-1.869c-0.306-0.102-0.64-0.051-0.901 0.138s-0.415 0.49-0.415 0.811v13.001c0 0.379 0.214 0.725 0.553 0.894l6 3c0.141 0.070 0.294 0.106 0.447 0.106s0.307-0.035 0.447-0.106l5.63-2.814 5.606 1.869c0.305 0.1 0.64 0.049 0.901-0.139s0.415-0.49 0.415-0.81v-13.002c0.001-0.379-0.213-0.725-0.552-0.894zM8 5.231l4-2v11.763l-4 2v-11.763zM2 4l4 1.333v11.661l-4-2v-10.994zM18 16.227l-4-1.334v-11.662l4 2v10.996z"></path>
</symbol>
<symbol id="icon-rocket" viewBox="0 0 20 20">
<title>rocket</title>
<path d="M11.933 13.069c0 0 7.059-5.094 6.276-10.924-0.017-0.127-0.059-0.213-0.112-0.268-0.054-0.055-0.137-0.098-0.263-0.115-5.697-0.801-10.674 6.422-10.674 6.422-4.318-0.517-4.004 0.344-5.974 5.076-0.377 0.902 0.234 1.213 0.904 0.959 0.67-0.252 2.148-0.811 2.148-0.811l2.59 2.648c0 0-0.546 1.514-0.793 2.199s0.055 1.311 0.938 0.926c4.624-2.016 5.466-1.694 4.96-6.112zM12.942 7.153c-0.598-0.613-0.598-1.604 0-2.217 0.598-0.611 1.567-0.611 2.166 0s0.598 1.603 0 2.217c-0.599 0.611-1.569 0.611-2.166 0z"></path>
</symbol>
<symbol id="icon-trophy" viewBox="0 0 20 20">
<title>trophy</title>
<path d="M11.18 14.356c0-1.451 1.1-2.254 2.894-3.442 2.194-1.456 4.926-3.265 4.926-7.56 0-0.387-0.317-0.699-0.709-0.699h-3.43c-0.484-0.896-1.929-1.855-4.861-1.855-2.934 0-4.377 0.959-4.862 1.855h-3.431c-0.391 0-0.707 0.313-0.707 0.699 0 4.295 2.73 6.104 4.926 7.559 1.794 1.188 2.894 1.991 2.894 3.442v1.311c-1.884 0.209-3.269 0.906-3.269 1.736 0 0.994 1.992 1.799 4.449 1.799s4.449-0.805 4.449-1.799c0-0.83-1.385-1.527-3.269-1.736v-1.31zM13.957 9.3c0.566-1.199 1.016-2.826 1.088-5.246h2.51c-0.24 2.701-1.862 4.064-3.598 5.246zM10 2.026c2.732-0.002 3.799 1.115 3.798 1.529 0 0.418-1.066 1.533-3.798 1.535-2.732-0.001-3.799-1.116-3.799-1.534-0.001-0.414 1.067-1.532 3.799-1.53zM2.445 4.054h2.509c0.073 2.42 0.521 4.047 1.089 5.246-1.736-1.182-3.359-2.545-3.598-5.246z"></path>
</symbol>
<symbol id="icon-user" viewBox="0 0 20 20">
<title>user</title>
<path d="M7.725 2.146c-1.016 0.756-1.289 1.953-1.239 2.59 0.064 0.779 0.222 1.793 0.222 1.793s-0.313 0.17-0.313 0.854c0.109 1.717 0.683 0.976 0.801 1.729 0.284 1.814 0.933 1.491 0.933 2.481 0 1.649-0.68 2.42-2.803 3.334-2.13 0.918-4.326 2.073-4.326 4.073v1h18v-1c0-2-2.197-3.155-4.328-4.072-2.123-0.914-2.801-1.684-2.801-3.334 0-0.99 0.647-0.667 0.932-2.481 0.119-0.753 0.692-0.012 0.803-1.729 0-0.684-0.314-0.854-0.314-0.854s0.158-1.014 0.221-1.793c0.065-0.817-0.398-2.561-2.3-3.096-0.333-0.34-0.558-0.881 0.466-1.424-2.24-0.105-2.761 1.067-3.954 1.929z"></path>
</symbol>
<symbol id="icon-users" viewBox="0 0 20 20">
<title>users</title>
<path d="M15.989 19.129c0-2.246-2.187-3.389-4.317-4.307-2.123-0.914-2.801-1.684-2.801-3.334 0-0.989 0.648-0.667 0.932-2.481 0.12-0.752 0.692-0.012 0.802-1.729 0-0.684-0.313-0.854-0.313-0.854s0.159-1.013 0.221-1.793c0.064-0.817-0.398-2.56-2.301-3.095-0.332-0.341-0.557-0.882 0.467-1.424-2.24-0.104-2.761 1.068-3.954 1.93-1.015 0.756-1.289 1.953-1.24 2.59 0.065 0.78 0.223 1.793 0.223 1.793s-0.314 0.17-0.314 0.854c0.11 1.718 0.684 0.977 0.803 1.729 0.284 1.814 0.933 1.492 0.933 2.481 0 1.65-0.212 2.21-2.336 3.124-2.131 0.917-2.794 2.387-2.783 4.516 0.003 0.637-0.011 0.871-0.011 0.871h16c0 0-0.011-0.234-0.011-0.871zM18.528 13.365c-1.135-0.457-1.605-1.002-1.605-2.066 0-0.641 0.418-0.432 0.602-1.603 0.077-0.484 0.447-0.008 0.518-1.115 0-0.441-0.202-0.551-0.202-0.551s0.103-0.656 0.143-1.159c0.050-0.627-0.364-2.247-2.268-2.247s-2.318 1.62-2.269 2.247c0.042 0.502 0.144 1.159 0.144 1.159s-0.202 0.109-0.202 0.551c0.071 1.107 0.441 0.631 0.518 1.115 0.184 1.172 0.602 0.963 0.602 1.603 0 1.064-0.438 1.562-1.809 2.152-0.069 0.029-0.12 0.068-0.183 0.102 1.64 0.712 4.226 1.941 4.838 4.447h2.645c0 0 0-1.906 0-2.318 0-1-0.273-1.834-1.472-2.317z"></path>
</symbol>
<symbol id="icon-google-drive" viewBox="0 0 20 20">
<title>google-drive</title>
<path d="M8.175 13l-3.324 6h11.824l3.325-6h-11.825zM5.865 2.299l-5.865 10.615 3.372 6.084 5.866-10.615-3.373-6.084zM19.445 12l-6.096-11h-6.745l6.088 11h6.753z"></path>
</symbol>
<symbol id="icon-vk" viewBox="0 0 20 20">
<title>vk</title>
<path d="M17.802 12.298c0 0 1.617 1.597 2.017 2.336 0.011 0.016 0.016 0.028 0.018 0.035 0.163 0.273 0.203 0.487 0.123 0.645-0.135 0.261-0.592 0.392-0.747 0.403 0 0-2.778 0-2.858 0-0.199 0-0.613-0.052-1.117-0.4-0.385-0.269-0.768-0.712-1.139-1.145-0.554-0.643-1.033-1.201-1.518-1.201-0.062 0-0.122 0.010-0.18 0.030-0.367 0.116-0.833 0.639-0.833 2.032 0 0.436-0.344 0.684-0.585 0.684 0 0-1.248 0-1.309 0-0.446 0-2.768-0.156-4.827-2.327-2.523-2.658-4.789-7.99-4.811-8.037-0.141-0.345 0.155-0.533 0.475-0.533h2.886c0.387 0 0.513 0.234 0.601 0.444 0.102 0.241 0.48 1.205 1.1 2.288 1.004 1.762 1.621 2.479 2.114 2.479 0.093 0 0.181-0.023 0.264-0.070 0.644-0.354 0.524-2.654 0.494-3.128 0-0.092-0.001-1.027-0.331-1.479-0.236-0.324-0.638-0.45-0.881-0.496 0.065-0.094 0.203-0.238 0.38-0.323 0.441-0.22 1.238-0.252 2.029-0.252h0.439c0.858 0.012 1.080 0.067 1.392 0.146 0.628 0.15 0.64 0.557 0.585 1.943-0.016 0.396-0.033 0.842-0.033 1.367 0 0.112-0.005 0.237-0.005 0.364-0.019 0.711-0.044 1.512 0.458 1.841 0.064 0.040 0.139 0.062 0.217 0.062 0.174 0 0.695 0 2.108-2.425 0.62-1.071 1.1-2.334 1.133-2.429 0.028-0.053 0.112-0.202 0.214-0.262 0.078-0.048 0.182-0.056 0.236-0.056h3.395c0.37 0 0.621 0.056 0.67 0.196 0.082 0.227-0.016 0.92-1.566 3.016-0.261 0.349-0.49 0.651-0.691 0.915-1.405 1.844-1.405 1.937 0.083 3.337z"></path>
</symbol>
<symbol id="icon-pinterest" viewBox="0 0 20 20">
<title>pinterest</title>
<path d="M8.617 13.227c-0.526 2.754-1.167 5.394-3.068 6.773-0.586-4.162 0.861-7.287 1.534-10.605-1.147-1.93 0.138-5.812 2.555-4.855 2.975 1.176-2.576 7.172 1.15 7.922 3.891 0.781 5.479-6.75 3.066-9.199-3.485-3.538-10.146-0.083-9.326 4.982 0.199 1.238 1.478 1.613 0.511 3.322-2.231-0.494-2.897-2.254-2.811-4.6 0.138-3.84 3.449-6.527 6.771-6.9 4.201-0.471 8.144 1.543 8.689 5.494 0.613 4.461-1.896 9.293-6.389 8.945-1.218-0.095-1.728-0.699-2.682-1.279z"></path>
</symbol>
<symbol id="icon-twitter" viewBox="0 0 20 20">
<title>twitter</title>
<path d="M17.316 6.246c0.008 0.162 0.011 0.326 0.011 0.488 0 4.99-3.797 10.742-10.74 10.742-2.133 0-4.116-0.625-5.787-1.697 0.296 0.035 0.596 0.053 0.9 0.053 1.77 0 3.397-0.604 4.688-1.615-1.651-0.031-3.046-1.121-3.526-2.621 0.23 0.043 0.467 0.066 0.71 0.066 0.345 0 0.679-0.045 0.995-0.131-1.727-0.348-3.028-1.873-3.028-3.703 0-0.016 0-0.031 0-0.047 0.509 0.283 1.092 0.453 1.71 0.473-1.013-0.678-1.68-1.832-1.68-3.143 0-0.691 0.186-1.34 0.512-1.898 1.861 2.285 4.644 3.787 7.781 3.945-0.064-0.277-0.097-0.564-0.097-0.861 0-2.084 1.689-3.773 3.774-3.773 1.086 0 2.067 0.457 2.756 1.191 0.859-0.17 1.667-0.484 2.397-0.916-0.282 0.881-0.881 1.621-1.66 2.088 0.764-0.092 1.49-0.293 2.168-0.594-0.506 0.758-1.146 1.422-1.884 1.953z"></path>
</symbol>
<symbol id="icon-amazon" viewBox="0 0 32 32">
<title>amazon</title>
<path fill="#f90" style="fill: var(--color1, #f90)" d="M0.060 24.027c0.096-0.155 0.249-0.165 0.464-0.029 4.848 2.813 10.125 4.221 15.827 4.221 3.803 0 7.557-0.711 11.263-2.127l0.42-0.187c0.184-0.080 0.312-0.133 0.391-0.173 0.301-0.117 0.52-0.061 0.7 0.173 0.16 0.232 0.12 0.448-0.16 0.64-0.341 0.253-0.8 0.547-1.341 0.872-1.659 0.991-3.52 1.755-5.58 2.301-2.040 0.541-4.060 0.813-6.021 0.813-3.020 0-5.88-0.528-8.58-1.583-2.693-1.059-5.093-2.547-7.24-4.467-0.133-0.099-0.2-0.2-0.2-0.293 0-0.063 0.027-0.12 0.067-0.173zM8.813 15.736c0-1.34 0.329-2.484 0.991-3.436 0.66-0.947 1.56-1.667 2.72-2.153 1.061-0.447 2.341-0.767 3.883-0.96 0.52-0.061 1.377-0.137 2.56-0.232v-0.493c0-1.24-0.14-2.077-0.4-2.5-0.403-0.573-1.040-0.867-1.92-0.867h-0.243c-0.64 0.061-1.195 0.261-1.661 0.613-0.467 0.36-0.767 0.84-0.9 1.461-0.080 0.4-0.275 0.62-0.58 0.68l-3.36-0.42c-0.331-0.080-0.496-0.24-0.496-0.52 0-0.061 0.009-0.12 0.029-0.2 0.329-1.72 1.14-3 2.427-3.84 1.301-0.821 2.8-1.3 4.52-1.4h0.72c2.2 0 3.943 0.579 5.184 1.72 0.18 0.2 0.36 0.4 0.54 0.64 0.16 0.22 0.299 0.419 0.377 0.6 0.1 0.179 0.2 0.44 0.26 0.76 0.080 0.339 0.14 0.56 0.18 0.68 0.040 0.139 0.083 0.4 0.101 0.82 0.013 0.417 0.027 0.657 0.027 0.737v7.040c0 0.501 0.080 0.96 0.22 1.381 0.14 0.417 0.28 0.72 0.42 0.899l0.68 0.899c0.12 0.181 0.181 0.341 0.181 0.48 0 0.16-0.080 0.301-0.24 0.419-1.6 1.4-2.48 2.16-2.617 2.28-0.22 0.18-0.5 0.2-0.84 0.060-0.26-0.221-0.5-0.443-0.701-0.661l-0.413-0.463c-0.080-0.099-0.221-0.28-0.423-0.56l-0.4-0.58c-1.080 1.181-2.137 1.92-3.2 2.22-0.659 0.2-1.457 0.303-2.44 0.303-1.48 0-2.72-0.457-3.68-1.379-0.96-0.92-1.44-2.22-1.44-3.92l-0.067-0.101zM13.817 15.152c0 0.755 0.187 1.36 0.567 1.819 0.38 0.453 0.9 0.683 1.54 0.683 0.060 0 0.141-0.009 0.26-0.027 0.12-0.021 0.179-0.031 0.221-0.031 0.819-0.213 1.44-0.737 1.899-1.571 0.22-0.373 0.38-0.773 0.48-1.213 0.12-0.427 0.16-0.787 0.18-1.067 0.020-0.26 0.020-0.72 0.020-1.34v-0.72c-1.12 0-1.979 0.080-2.56 0.24-1.7 0.48-2.56 1.56-2.56 3.24l-0.047-0.027zM26.033 24.521c0.040-0.080 0.1-0.147 0.176-0.227 0.483-0.324 0.952-0.547 1.4-0.667 0.733-0.177 1.453-0.296 2.149-0.32 0.187-0.016 0.373 0 0.547 0.040 0.867 0.080 1.4 0.224 1.563 0.44 0.084 0.12 0.12 0.304 0.12 0.52v0.2c0 0.68-0.187 1.48-0.553 2.4-0.371 0.92-0.885 1.664-1.541 2.24-0.097 0.080-0.187 0.12-0.263 0.12-0.040 0-0.080 0-0.12-0.016-0.12-0.059-0.143-0.16-0.085-0.32 0.72-1.68 1.075-2.857 1.075-3.52 0-0.2-0.040-0.36-0.116-0.459-0.193-0.221-0.733-0.343-1.632-0.343-0.324 0-0.711 0.021-1.16 0.061-0.484 0.060-0.933 0.12-1.333 0.18-0.12 0-0.197-0.019-0.24-0.059-0.040-0.040-0.048-0.063-0.027-0.103 0-0.023 0.008-0.040 0.027-0.084v-0.080z"></path>
</symbol>
<symbol id="icon-dell" viewBox="0 0 32 32">
<title>dell</title>
<path fill="#007db8" style="fill: var(--color2, #007db8)" d="M23.951 19.467v-7.035h1.629v5.605h2.853v1.427h-4.483zM10.905 15.083l3.973-3.056c0.375 0.304 0.747 0.611 1.121 0.916l-3.769 2.853 0.815 0.713 3.769-2.955c0.375 0.304 0.747 0.611 1.121 0.917-0.431 0.366-1.658 1.334-2.89 2.295l-0.879 0.66 0.813 0.715 3.773-3.060-0.001-2.648h1.631v5.605h2.955v1.427h-4.483v-2.649c-1.327 1.017-2.649 2.039-3.975 3.056l-3.975-3.056c-0.192 0.972-0.871 1.813-1.749 2.259-0.38 0.196-0.796 0.32-1.22 0.368-0.244 0.029-0.489 0.023-0.735 0.023h-2.513v-7.032h2.899c0.792 0.008 1.518 0.287 2.091 0.748l-0.007-0.005c0.605 0.48 1.037 1.163 1.236 1.907zM6.219 13.86v4.28l1.271-0.001c0.56-0.019 1.054-0.286 1.378-0.694l0.003-0.004c0.315-0.393 0.506-0.897 0.506-1.446 0-0.392-0.097-0.762-0.269-1.085l0.006 0.013c-0.266-0.507-0.731-0.88-1.288-1.018l-0.014-0.003c-0.221-0.053-0.451-0.040-0.676-0.043h-0.917zM15.76 0h0.449c2.641 0.036 5.117 0.709 7.292 1.872l-0.085-0.042c2.209 1.178 4.049 2.775 5.47 4.699l0.031 0.044c1.883 2.541 3.032 5.725 3.083 9.175l0 0.012v0.48c-0.054 4.152-1.686 7.913-4.322 10.719l0.008-0.008c-2.873 3.063-6.927 4.989-11.432 5.049l-0.011 0h-0.481c-1.995-0.031-3.89-0.423-5.635-1.112l0.108 0.038c-2.231-0.882-4.13-2.166-5.695-3.777l-0.004-0.004c-1.67-1.716-2.962-3.808-3.735-6.137l-0.033-0.113c-0.462-1.385-0.741-2.981-0.768-4.639l-0-0.013v-0.481c0.056-3.184 1.040-6.128 2.692-8.585l-0.036 0.057c1.582-2.364 3.7-4.252 6.188-5.52l0.092-0.043c1.988-1.016 4.33-1.628 6.81-1.669l0.014-0zM15.556 1.64c-3.268 0.096-6.244 1.275-8.6 3.187l0.026-0.021c-1.959 1.586-3.477 3.642-4.392 5.999l-0.033 0.098c-0.586 1.513-0.926 3.264-0.926 5.094 0 2.072 0.435 4.043 1.22 5.825l-0.036-0.093c1.061 2.4 2.675 4.389 4.688 5.867l0.040 0.028c1.791 1.319 3.954 2.238 6.304 2.585l0.078 0.009c1.941 0.279 3.94 0.165 5.835-0.347 2.688-0.741 4.98-2.165 6.759-4.074l0.008-0.009c1.772-1.898 3.037-4.291 3.566-6.949l0.015-0.091c0.167-0.827 0.262-1.778 0.262-2.751 0-1.24-0.155-2.443-0.447-3.592l0.022 0.101c-1.232-4.82-4.782-8.602-9.363-10.139l-0.101-0.029c-1.33-0.449-2.862-0.708-4.454-0.708-0.165 0-0.33 0.003-0.493 0.008l0.024-0.001z"></path>
</symbol>
<symbol id="icon-huawei" viewBox="0 0 32 32">
<title>huawei</title>
<path fill="#f00" style="fill: var(--color3, #f00)" d="M4.893 8.187s-2.467 2.36-2.6 4.853v0.467c0.107 2.013 1.627 3.2 1.627 3.2 2.44 2.387 8.347 5.387 9.733 6.067 0 0 0.080 0.040 0.133-0.013l0.027-0.053v-0.053c-3.787-8.253-8.92-14.467-8.92-14.467zM12.867 24.8c-0.027-0.107-0.133-0.107-0.133-0.107l-9.84 0.347c1.067 1.907 2.867 3.373 4.747 2.933 1.28-0.333 4.213-2.373 5.173-3.067 0.080-0.067 0.053-0.12 0.053-0.12zM12.973 23.76c-4.32-2.92-12.693-7.387-12.693-7.387-0.2 0.613-0.267 1.2-0.28 1.733v0.093c0 1.427 0.533 2.427 0.533 2.427 1.067 2.253 3.12 2.933 3.12 2.933 0.933 0.4 1.867 0.413 1.867 0.413 0.16 0.027 5.867 0 7.387 0 0.067 0 0.107-0.067 0.107-0.067v-0.080c0-0.040-0.040-0.067-0.040-0.067zM12.080 4.253c-1.918 0.502-3.327 2.173-3.426 4.189l-0 0.011v0.547c0.040 0.8 0.213 1.4 0.213 1.4 0.88 3.867 5.147 10.2 6.067 11.533 0.067 0.067 0.133 0.040 0.133 0.040 0.048-0.021 0.080-0.068 0.080-0.122 0-0.004-0-0.008-0-0.011l0 0c1.413-14.133-1.48-17.893-1.48-17.893-0.427 0.027-1.587 0.307-1.587 0.307zM23.147 7.28s-0.653-2.4-3.253-3.040c0 0-0.76-0.187-1.56-0.293 0 0-2.907 3.747-1.493 17.907 0.013 0.093 0.080 0.107 0.080 0.107 0.093 0.040 0.133-0.040 0.133-0.040 0.96-1.373 5.2-7.68 6.067-11.52 0 0 0.48-1.867 0.027-3.12zM19.253 24.707s-0.093 0-0.12 0.067c0 0-0.013 0.093 0.040 0.133 0.933 0.68 3.8 2.667 5.173 3.067 0 0 0.213 0.067 0.573 0.080h0.187c0.92-0.027 2.533-0.493 4-3.013l-9.867-0.333zM29.693 13.493c0.187-2.747-2.587-5.293-2.587-5.307 0 0-5.133 6.213-8.893 14.4 0 0-0.040 0.107 0.027 0.173l0.053 0.013h0.080c1.413-0.707 7.28-3.693 9.707-6.053 0 0 1.533-1.24 1.613-3.227zM31.72 16.347s-8.373 4.493-12.693 7.4c0 0-0.067 0.053-0.040 0.147 0 0 0.040 0.080 0.093 0.080 1.547 0 7.413 0 7.56-0.027 0 0 0.76-0.027 1.693-0.387 0 0 2.080-0.667 3.16-3.027 0 0 0.973-1.933 0.227-4.187z"></path>
</symbol>
<symbol id="icon-microsoft" viewBox="0 0 32 32">
<title>microsoft</title>
<path fill="#666" style="fill: var(--color4, #666)" d="M15.2 32h-15.2v-15.2h15.2v15.2zM32 32h-15.2v-15.2h15.2v15.2zM15.2 15.2h-15.2v-15.2h15.2v15.2zM32 15.2h-15.2v-15.2h15.2v15.2z"></path>
</symbol>
<symbol id="icon-samsung" viewBox="0 0 32 32">
<title>samsung</title>
<path fill="#1428a0" style="fill: var(--color5, #1428a0)" d="M26.422 13.708l0.061 3.591h-0.031l-1.039-3.591h-1.712v4.523h1.131l-0.061-3.713h0.031l1.115 3.713h1.635v-4.523zM4.89 13.708l-0.856 4.569h1.238l0.627-4.157h0.031l0.611 4.157h1.223l-0.841-4.569zM11.797 13.708l-0.565 3.484h-0.031l-0.565-3.484h-1.864l-0.092 4.569h1.146l0.031-4.111h0.015l0.764 4.111h1.161l0.764-4.111h0.031l0.030 4.111h1.146l-0.107-4.569zM2.109 16.978c0.046 0.107 0.031 0.26 0.015 0.336-0.031 0.153-0.137 0.306-0.443 0.306-0.29 0-0.458-0.168-0.458-0.413v-0.443h-1.223v0.351c0 1.024 0.81 1.329 1.666 1.329 0.825 0 1.513-0.29 1.62-1.039 0.061-0.397 0.015-0.657 0-0.749-0.214-0.963-1.956-1.238-2.078-1.773-0.015-0.092-0.015-0.183 0-0.245 0.031-0.153 0.138-0.306 0.413-0.306s0.428 0.168 0.428 0.413v0.275h1.146v-0.321c0-0.993-0.902-1.146-1.543-1.146-0.81 0-1.482 0.275-1.605 1.009-0.031 0.199-0.046 0.382 0.015 0.611 0.183 0.947 1.819 1.223 2.048 1.803zM16.978 16.978c0.046 0.107 0.030 0.245 0.015 0.336-0.031 0.153-0.138 0.306-0.443 0.306-0.29 0-0.458-0.168-0.458-0.413v-0.443h-1.223v0.351c0 1.009 0.795 1.314 1.651 1.314 0.825 0 1.498-0.275 1.605-1.039 0.061-0.397 0.015-0.642 0-0.749-0.183-0.947-1.91-1.238-2.032-1.757-0.015-0.092-0.015-0.183 0-0.245 0.031-0.153 0.137-0.306 0.413-0.306 0.26 0 0.428 0.168 0.428 0.413v0.275h1.131v-0.321c0-0.993-0.886-1.146-1.528-1.146-0.81 0-1.467 0.26-1.589 1.009-0.031 0.199-0.031 0.382 0.015 0.611 0.183 0.947 1.788 1.207 2.017 1.803zM20.829 17.589c0.321 0 0.413-0.214 0.443-0.336 0.015-0.046 0.015-0.122 0.015-0.168v-3.377h1.161v3.286c0 0.092 0 0.26-0.015 0.306-0.076 0.856-0.749 1.131-1.589 1.131s-1.513-0.275-1.589-1.131c0-0.046-0.015-0.214-0.015-0.306v-3.286h1.161v3.377c0 0.061 0 0.122 0.015 0.168 0 0.122 0.092 0.336 0.413 0.336zM30.365 17.543c0.336 0 0.443-0.214 0.474-0.336 0.015-0.046 0.015-0.122 0.015-0.168v-0.657h-0.474v-0.672h1.62v1.223c0 0.092 0 0.153-0.015 0.306-0.076 0.84-0.795 1.131-1.605 1.131s-1.528-0.29-1.605-1.131c-0.015-0.153-0.015-0.214-0.015-0.306v-1.925c0-0.077 0.015-0.229 0.015-0.306 0.107-0.856 0.795-1.131 1.605-1.131s1.513 0.275 1.605 1.131c0.015 0.137 0.015 0.306 0.015 0.306v0.153h-1.146v-0.26s0-0.107-0.015-0.168c-0.015-0.107-0.107-0.336-0.458-0.336-0.336 0-0.428 0.214-0.458 0.336-0.015 0.061-0.015 0.138-0.015 0.214v2.094c0 0.061 0 0.122 0.015 0.168 0 0.122 0.122 0.336 0.443 0.336z"></path>
</symbol>
<symbol id="icon-yandex" viewBox="0 0 32 32">
<title>yandex</title>
<path fill="#f00" style="fill: var(--color3, #f00)" d="M2.536 21.799v-3.8l-2.536-6.801h1.276l1.867 5.251 2.151-6.351h1.169l-2.759 7.947v3.753h-1.168zM10.053 21.799h-0.979c-0.044-0.167-0.087-0.4-0.1-0.596h-0.076c-0.328 0.417-0.745 0.7-1.401 0.7-1.064 0-1.792-0.801-1.792-2.272 0-1.6 0.815-2.608 2.907-2.608h0.164v-0.444c0-0.98-0.328-1.397-0.98-1.397-0.593 0-1.099 0.312-1.483 0.653l-0.223-1.021c0.341-0.284 1.021-0.596 1.781-0.596 1.32 0 2.044 0.565 2.044 2.375v3.515c0 0.712 0.073 1.336 0.133 1.689l0.004 0.003zM8.78 17.899h-0.135c-1.44 0-1.751 0.639-1.751 1.6 0 0.86 0.28 1.423 0.873 1.423 0.4 0 0.801-0.267 1.009-0.593l0.003-2.429zM12.516 21.799h-1.159v-7.495h1.159v0.655h0.075c0.205-0.28 0.771-0.741 1.468-0.741 0.976 0 1.495 0.549 1.495 1.691v5.891h-1.171v-5.787c0-0.564-0.251-0.76-0.699-0.76-0.485 0-0.9 0.372-1.169 0.745v5.8l0.001 0.001zM16.696 18.343c0-2.773 1.040-4.125 2.535-4.125 0.357 0 0.727 0.12 0.951 0.281v-3.301h1.159v10.6h-0.86l-0.092-0.593h-0.073c-0.327 0.416-0.741 0.695-1.351 0.695-1.467 0-2.265-1.244-2.265-3.556h-0.003zM20.183 15.523c-0.235-0.235-0.488-0.355-0.875-0.355-0.933 0-1.38 1.409-1.38 2.936 0 1.751 0.328 2.819 1.175 2.819 0.581 0 0.888-0.284 1.081-0.58v-4.82zM24.988 21.903c-1.54 0-2.492-1.232-2.492-3.529 0-2.405 0.668-4.155 2.253-4.155 1.247 0 2.059 0.935 2.059 3.472v0.637h-3.108c0 1.691 0.473 2.58 1.393 2.58 0.652 0 1.129-0.296 1.424-0.504l0.267 0.889c-0.472 0.371-1.053 0.608-1.793 0.608l-0.003 0.001zM23.712 17.377h1.913c0-1.276-0.207-2.209-0.875-2.209-0.709 0-0.96 0.876-1.040 2.209h0.001zM31.839 14.321l-1.393 3.5 1.555 3.977h-1.199l-1.16-3.085-1.125 3.084h-1.14l1.555-3.872-1.409-3.603h1.201l0.969 2.713 1.020-2.715h1.128z"></path>
</symbol>
<symbol id="icon-newspaper" viewBox="0 0 32 32">
<title>newspaper</title>
<path d="M28 8v-4h-28v22c0 1.105 0.895 2 2 2h27c1.657 0 3-1.343 3-3v-17h-4zM26 26h-24v-20h24v20zM4 10h20v2h-20zM16 14h8v2h-8zM16 18h8v2h-8zM16 22h6v2h-6zM4 14h10v10h-10z"></path>
</symbol>
</defs>
</svg>
